<svg width="117" height="36" viewBox="0 0 117 36" fill="none" xmlns="http://www.w3.org/2000/svg">
<g clip-path="url(#clip0_26_4268)">
<path fill-rule="evenodd" clip-rule="evenodd" d="M0 5.03813C0 4.59913 0.180472 4.19987 0.472212 3.91151C0.763953 3.62223 1.16696 3.44385 1.61299 3.44385C2.05808 3.44385 2.4611 3.62223 2.75284 3.91151C3.04551 4.19987 3.22597 4.59913 3.22597 5.03813C3.22597 5.47899 3.04551 5.87732 2.75284 6.16661C2.4611 6.45404 2.05808 6.63242 1.61299 6.63242C1.16696 6.63242 0.763953 6.45404 0.472212 6.16661C0.180472 5.87732 0 5.47899 0 5.03813ZM0 30.9164C0 30.4774 0.180472 30.0781 0.472212 29.7898C0.763953 29.5005 1.16696 29.3221 1.61299 29.3221C2.05808 29.3221 2.4611 29.5005 2.75284 29.7898C3.04551 30.0781 3.22597 30.4774 3.22597 30.9164C3.22597 31.3572 3.04551 31.7556 2.75284 32.0449C2.4611 32.3323 2.05808 32.5107 1.61299 32.5107C1.16696 32.5107 0.763953 32.3323 0.472212 32.0449C0.180472 31.7556 0 31.3572 0 30.9164ZM35.9532 24.4468C35.9532 24.8877 35.7728 25.286 35.4801 25.5753C35.1884 25.8627 34.7854 26.0411 34.3403 26.0411C33.8942 26.0411 33.4912 25.8627 33.1995 25.5753C32.9077 25.286 32.7273 24.8877 32.7273 24.4468C32.7273 24.0078 32.9077 23.6086 33.1995 23.3202C33.4912 23.0309 33.8942 22.8525 34.3403 22.8525C34.7854 22.8525 35.1884 23.0309 35.4801 23.3202C35.7728 23.6086 35.9532 24.0078 35.9532 24.4468ZM35.9532 5.03813C35.9532 5.47899 35.7728 5.87732 35.4801 6.16661C35.1884 6.45404 34.7854 6.63242 34.3403 6.63242C33.8942 6.63242 33.4912 6.45404 33.1995 6.16661C32.9077 5.87732 32.7273 5.47899 32.7273 5.03813C32.7273 4.59913 32.9077 4.19987 33.1995 3.91151C33.4912 3.62223 33.8942 3.44385 34.3403 3.44385C34.7854 3.44385 35.1884 3.62223 35.4801 3.91151C35.7728 4.19987 35.9532 4.59913 35.9532 5.03813ZM3.27273 5.03813C3.27273 4.59913 3.4532 4.19987 3.74494 3.91151C4.03668 3.62223 4.43969 3.44385 4.88571 3.44385C5.33081 3.44385 5.73382 3.62223 6.02556 3.91151C6.31824 4.19987 6.4987 4.59913 6.4987 5.03813C6.4987 5.47899 6.31824 5.87732 6.02556 6.16661C5.73382 6.45404 5.33081 6.63242 4.88571 6.63242C4.43969 6.63242 4.03668 6.45404 3.74494 6.16661C3.4532 5.87732 3.27273 5.47899 3.27273 5.03813ZM3.27273 8.27292C3.27273 7.83391 3.4532 7.43465 3.74494 7.14629C4.03668 6.85701 4.43969 6.67863 4.88571 6.67863C5.33081 6.67863 5.73382 6.85701 6.02556 7.14629C6.31824 7.43465 6.4987 7.83391 6.4987 8.27292C6.4987 8.71377 6.31824 9.11211 6.02556 9.40139C5.73382 9.68882 5.33081 9.8672 4.88571 9.8672C4.43969 9.8672 4.03668 9.68882 3.74494 9.40139C3.4532 9.11211 3.27273 8.71377 3.27273 8.27292ZM3.27273 27.6816C3.27273 27.2426 3.4532 26.8433 3.74494 26.555C4.03668 26.2657 4.43969 26.0873 4.88571 26.0873C5.33081 26.0873 5.73382 26.2657 6.02556 26.555C6.31824 26.8433 6.4987 27.2426 6.4987 27.6816C6.4987 28.1225 6.31824 28.5208 6.02556 28.8101C5.73382 29.0975 5.33081 29.2759 4.88571 29.2759C4.43969 29.2759 4.03668 29.0975 3.74494 28.8101C3.4532 28.5208 3.27273 28.1225 3.27273 27.6816ZM3.27273 30.9164C3.27273 30.4774 3.4532 30.0781 3.74494 29.7898C4.03668 29.5005 4.43969 29.3221 4.88571 29.3221C5.33081 29.3221 5.73382 29.5005 6.02556 29.7898C6.31824 30.0781 6.4987 30.4774 6.4987 30.9164C6.4987 31.3572 6.31824 31.7556 6.02556 32.0449C5.73382 32.3323 5.33081 32.5107 4.88571 32.5107C4.43969 32.5107 4.03668 32.3323 3.74494 32.0449C3.4532 31.7556 3.27273 31.3572 3.27273 30.9164ZM8.15844 32.5107C7.71242 32.5107 7.30941 32.3323 7.01767 32.0449C6.72593 31.7556 6.54545 31.3572 6.54545 30.9164C6.54545 30.4774 6.72593 30.0781 7.01767 29.7898C7.30941 29.5005 7.71242 29.3221 8.15844 29.3221C8.60353 29.3221 9.00655 29.5005 9.29829 29.7898C9.59097 30.0781 9.77143 30.4774 9.77143 30.9164C9.77143 31.3572 9.59097 31.7556 9.29829 32.0449C9.00655 32.3323 8.60353 32.5107 8.15844 32.5107ZM11.4312 32.5107C10.9851 32.5107 10.5821 32.3323 10.2904 32.0449C9.99865 31.7556 9.81818 31.3572 9.81818 30.9164C9.81818 30.4774 9.99865 30.0781 10.2904 29.7898C10.5821 29.5005 10.9851 29.3221 11.4312 29.3221C11.8763 29.3221 12.2793 29.5005 12.571 29.7898C12.8637 30.0781 13.0442 30.4774 13.0442 30.9164C13.0442 31.3572 12.8637 31.7556 12.571 32.0449C12.2793 32.3323 11.8763 32.5107 11.4312 32.5107ZM14.7039 32.5107C14.2579 32.5107 13.8549 32.3323 13.5631 32.0449C13.2714 31.7556 13.0909 31.3572 13.0909 30.9164C13.0909 30.4774 13.2714 30.0781 13.5631 29.7898C13.8549 29.5005 14.2579 29.3221 14.7039 29.3221C15.149 29.3221 15.552 29.5005 15.8437 29.7898C16.1364 30.0781 16.3169 30.4774 16.3169 30.9164C16.3169 31.3572 16.1364 31.7556 15.8437 32.0449C15.552 32.3323 15.149 32.5107 14.7039 32.5107ZM17.9766 32.5107C17.5306 32.5107 17.1276 32.3323 16.8358 32.0449C16.5441 31.7556 16.3636 31.3572 16.3636 30.9164C16.3636 30.4774 16.5441 30.0781 16.8358 29.7898C17.1276 29.5005 17.5306 29.3221 17.9766 29.3221C18.4217 29.3221 18.8247 29.5005 19.1165 29.7898C19.4091 30.0781 19.5896 30.4774 19.5896 30.9164C19.5896 31.3572 19.4091 31.7556 19.1165 32.0449C18.8247 32.3323 18.4217 32.5107 17.9766 32.5107ZM21.2494 32.5107C20.8033 32.5107 20.4003 32.3323 20.1086 32.0449C19.8168 31.7556 19.6364 31.3572 19.6364 30.9164C19.6364 30.4774 19.8168 30.0781 20.1086 29.7898C20.4003 29.5005 20.8033 29.3221 21.2494 29.3221C21.6944 29.3221 22.0975 29.5005 22.3892 29.7898C22.6819 30.0781 22.8623 30.4774 22.8623 30.9164C22.8623 31.3572 22.6819 31.7556 22.3892 32.0449C22.0975 32.3323 21.6944 32.5107 21.2494 32.5107ZM24.5221 32.5107C24.0761 32.5107 23.673 32.3323 23.3813 32.0449C23.0896 31.7556 22.9091 31.3572 22.9091 30.9164C22.9091 30.4774 23.0896 30.0781 23.3813 29.7898C23.673 29.5005 24.0761 29.3221 24.5221 29.3221C24.9672 29.3221 25.3702 29.5005 25.6619 29.7898C25.9546 30.0781 26.1351 30.4774 26.1351 30.9164C26.1351 31.3572 25.9546 31.7556 25.6619 32.0449C25.3702 32.3323 24.9672 32.5107 24.5221 32.5107ZM27.7948 32.5107C27.3488 32.5107 26.9458 32.3323 26.654 32.0449C26.3623 31.7556 26.1818 31.3572 26.1818 30.9164C26.1818 30.4774 26.3623 30.0781 26.654 29.7898C26.9458 29.5005 27.3488 29.3221 27.7948 29.3221C28.2399 29.3221 28.6429 29.5005 28.9347 29.7898C29.2273 30.0781 29.4078 30.4774 29.4078 30.9164C29.4078 31.3572 29.2273 31.7556 28.9347 32.0449C28.6429 32.3323 28.2399 32.5107 27.7948 32.5107ZM32.6805 27.6816C32.6805 28.1225 32.5001 28.5208 32.2074 28.8101C31.9156 29.0975 31.5126 29.2759 31.0675 29.2759C30.6215 29.2759 30.2185 29.0975 29.9268 28.8101C29.635 28.5208 29.4545 28.1225 29.4545 27.6816C29.4545 27.2426 29.635 26.8433 29.9268 26.555C30.2185 26.2657 30.6215 26.0873 31.0675 26.0873C31.5126 26.0873 31.9156 26.2657 32.2074 26.555C32.5001 26.8433 32.6805 27.2426 32.6805 27.6816ZM32.6805 24.4468C32.6805 24.8877 32.5001 25.286 32.2074 25.5753C31.9156 25.8627 31.5126 26.0411 31.0675 26.0411C30.6215 26.0411 30.2185 25.8627 29.9268 25.5753C29.635 25.286 29.4545 24.8877 29.4545 24.4468C29.4545 24.0078 29.635 23.6086 29.9268 23.3202C30.2185 23.0309 30.6215 22.8525 31.0675 22.8525C31.5126 22.8525 31.9156 23.0309 32.2074 23.3202C32.5001 23.6086 32.6805 24.0078 32.6805 24.4468ZM32.6805 8.27292C32.6805 8.71377 32.5001 9.11211 32.2074 9.40139C31.9156 9.68882 31.5126 9.8672 31.0675 9.8672C30.6215 9.8672 30.2185 9.68882 29.9268 9.40139C29.635 9.11211 29.4545 8.71377 29.4545 8.27292C29.4545 7.83391 29.635 7.43465 29.9268 7.14629C30.2185 6.85701 30.6215 6.67863 31.0675 6.67863C31.5126 6.67863 31.9156 6.85701 32.2074 7.14629C32.5001 7.43465 32.6805 7.83391 32.6805 8.27292ZM32.6805 5.03813C32.6805 5.47899 32.5001 5.87732 32.2074 6.16661C31.9156 6.45404 31.5126 6.63242 31.0675 6.63242C30.6215 6.63242 30.2185 6.45404 29.9268 6.16661C29.635 5.87732 29.4545 5.47899 29.4545 5.03813C29.4545 4.59913 29.635 4.19987 29.9268 3.91151C30.2185 3.62223 30.6215 3.44385 31.0675 3.44385C31.5126 3.44385 31.9156 3.62223 32.2074 3.91151C32.5001 4.19987 32.6805 4.59913 32.6805 5.03813ZM27.7948 3.44385C28.2399 3.44385 28.6429 3.62223 28.9347 3.91151C29.2273 4.19987 29.4078 4.59913 29.4078 5.03813C29.4078 5.47899 29.2273 5.87732 28.9347 6.16661C28.6429 6.45404 28.2399 6.63242 27.7948 6.63242C27.3488 6.63242 26.9458 6.45404 26.654 6.16661C26.3623 5.87732 26.1818 5.47899 26.1818 5.03813C26.1818 4.59913 26.3623 4.19987 26.654 3.91151C26.9458 3.62223 27.3488 3.44385 27.7948 3.44385ZM24.5221 3.44385C24.9672 3.44385 25.3702 3.62223 25.6619 3.91151C25.9546 4.19987 26.1351 4.59913 26.1351 5.03813C26.1351 5.47899 25.9546 5.87732 25.6619 6.16661C25.3702 6.45404 24.9672 6.63242 24.5221 6.63242C24.0761 6.63242 23.673 6.45404 23.3813 6.16661C23.0896 5.87732 22.9091 5.47899 22.9091 5.03813C22.9091 4.59913 23.0896 4.19987 23.3813 3.91151C23.673 3.62223 24.0761 3.44385 24.5221 3.44385ZM21.2494 3.44385C21.6944 3.44385 22.0975 3.62223 22.3892 3.91151C22.6819 4.19987 22.8623 4.59913 22.8623 5.03813C22.8623 5.47899 22.6819 5.87732 22.3892 6.16661C22.0975 6.45404 21.6944 6.63242 21.2494 6.63242C20.8033 6.63242 20.4003 6.45404 20.1086 6.16661C19.8168 5.87732 19.6364 5.47899 19.6364 5.03813C19.6364 4.59913 19.8168 4.19987 20.1086 3.91151C20.4003 3.62223 20.8033 3.44385 21.2494 3.44385ZM17.9766 3.44385C18.4217 3.44385 18.8247 3.62223 19.1165 3.91151C19.4091 4.19987 19.5896 4.59913 19.5896 5.03813C19.5896 5.47899 19.4091 5.87732 19.1165 6.16661C18.8247 6.45404 18.4217 6.63242 17.9766 6.63242C17.5306 6.63242 17.1276 6.45404 16.8358 6.16661C16.5441 5.87732 16.3636 5.47899 16.3636 5.03813C16.3636 4.59913 16.5441 4.19987 16.8358 3.91151C17.1276 3.62223 17.5306 3.44385 17.9766 3.44385ZM14.7039 3.44385C15.149 3.44385 15.552 3.62223 15.8437 3.91151C16.1364 4.19987 16.3169 4.59913 16.3169 5.03813C16.3169 5.47899 16.1364 5.87732 15.8437 6.16661C15.552 6.45404 15.149 6.63242 14.7039 6.63242C14.2579 6.63242 13.8549 6.45404 13.5631 6.16661C13.2714 5.87732 13.0909 5.47899 13.0909 5.03813C13.0909 4.59913 13.2714 4.19987 13.5631 3.91151C13.8549 3.62223 14.2579 3.44385 14.7039 3.44385ZM11.4312 3.44385C11.8763 3.44385 12.2793 3.62223 12.571 3.91151C12.8637 4.19987 13.0442 4.59913 13.0442 5.03813C13.0442 5.47899 12.8637 5.87732 12.571 6.16661C12.2793 6.45404 11.8763 6.63242 11.4312 6.63242C10.9851 6.63242 10.5821 6.45404 10.2904 6.16661C9.99865 5.87732 9.81818 5.47899 9.81818 5.03813C9.81818 4.59913 9.99865 4.19987 10.2904 3.91151C10.5821 3.62223 10.9851 3.44385 11.4312 3.44385ZM8.15844 3.44385C8.60353 3.44385 9.00655 3.62223 9.29829 3.91151C9.59097 4.19987 9.77143 4.59913 9.77143 5.03813C9.77143 5.47899 9.59097 5.87732 9.29829 6.16661C9.00655 6.45404 8.60353 6.63242 8.15844 6.63242C7.71242 6.63242 7.30941 6.45404 7.01767 6.16661C6.72593 5.87732 6.54545 5.47899 6.54545 5.03813C6.54545 4.59913 6.72593 4.19987 7.01767 3.91151C7.30941 3.62223 7.71242 3.44385 8.15844 3.44385ZM6.54545 8.27292C6.54545 7.83391 6.72593 7.43465 7.01767 7.14629C7.30941 6.85701 7.71242 6.67863 8.15844 6.67863C8.60353 6.67863 9.00655 6.85701 9.29829 7.14629C9.59097 7.43465 9.77143 7.83391 9.77143 8.27292C9.77143 8.71377 9.59097 9.11211 9.29829 9.40139C9.00655 9.68882 8.60353 9.8672 8.15844 9.8672C7.71242 9.8672 7.30941 9.68882 7.01767 9.40139C6.72593 9.11211 6.54545 8.71377 6.54545 8.27292ZM6.54545 11.5077C6.54545 11.0687 6.72593 10.6694 7.01767 10.3811C7.30941 10.0918 7.71242 9.91341 8.15844 9.91341C8.60353 9.91341 9.00655 10.0918 9.29829 10.3811C9.59097 10.6694 9.77143 11.0687 9.77143 11.5077C9.77143 11.9486 9.59097 12.3469 9.29829 12.6362C9.00655 12.9236 8.60353 13.102 8.15844 13.102C7.71242 13.102 7.30941 12.9236 7.01767 12.6362C6.72593 12.3469 6.54545 11.9486 6.54545 11.5077ZM6.54545 24.4468C6.54545 24.0078 6.72593 23.6086 7.01767 23.3202C7.30941 23.0309 7.71242 22.8525 8.15844 22.8525C8.60353 22.8525 9.00655 23.0309 9.29829 23.3202C9.59097 23.6086 9.77143 24.0078 9.77143 24.4468C9.77143 24.8877 9.59097 25.286 9.29829 25.5753C9.00655 25.8627 8.60353 26.0411 8.15844 26.0411C7.71242 26.0411 7.30941 25.8627 7.01767 25.5753C6.72593 25.286 6.54545 24.8877 6.54545 24.4468ZM6.54545 27.6816C6.54545 27.2426 6.72593 26.8433 7.01767 26.555C7.30941 26.2657 7.71242 26.0873 8.15844 26.0873C8.60353 26.0873 9.00655 26.2657 9.29829 26.555C9.59097 26.8433 9.77143 27.2426 9.77143 27.6816C9.77143 28.1225 9.59097 28.5208 9.29829 28.8101C9.00655 29.0975 8.60353 29.2759 8.15844 29.2759C7.71242 29.2759 7.30941 29.0975 7.01767 28.8101C6.72593 28.5208 6.54545 28.1225 6.54545 27.6816ZM11.4312 29.2759C10.9851 29.2759 10.5821 29.0975 10.2904 28.8101C9.99865 28.5208 9.81818 28.1225 9.81818 27.6816C9.81818 27.2426 9.99865 26.8433 10.2904 26.555C10.5821 26.2657 10.9851 26.0873 11.4312 26.0873C11.8763 26.0873 12.2793 26.2657 12.571 26.555C12.8637 26.8433 13.0442 27.2426 13.0442 27.6816C13.0442 28.1225 12.8637 28.5208 12.571 28.8101C12.2793 29.0975 11.8763 29.2759 11.4312 29.2759ZM14.7039 29.2759C14.2579 29.2759 13.8549 29.0975 13.5631 28.8101C13.2714 28.5208 13.0909 28.1225 13.0909 27.6816C13.0909 27.2426 13.2714 26.8433 13.5631 26.555C13.8549 26.2657 14.2579 26.0873 14.7039 26.0873C15.149 26.0873 15.552 26.2657 15.8437 26.555C16.1364 26.8433 16.3169 27.2426 16.3169 27.6816C16.3169 28.1225 16.1364 28.5208 15.8437 28.8101C15.552 29.0975 15.149 29.2759 14.7039 29.2759ZM17.9766 29.2759C17.5306 29.2759 17.1276 29.0975 16.8358 28.8101C16.5441 28.5208 16.3636 28.1225 16.3636 27.6816C16.3636 27.2426 16.5441 26.8433 16.8358 26.555C17.1276 26.2657 17.5306 26.0873 17.9766 26.0873C18.4217 26.0873 18.8247 26.2657 19.1165 26.555C19.4091 26.8433 19.5896 27.2426 19.5896 27.6816C19.5896 28.1225 19.4091 28.5208 19.1165 28.8101C18.8247 29.0975 18.4217 29.2759 17.9766 29.2759ZM21.2494 29.2759C20.8033 29.2759 20.4003 29.0975 20.1086 28.8101C19.8168 28.5208 19.6364 28.1225 19.6364 27.6816C19.6364 27.2426 19.8168 26.8433 20.1086 26.555C20.4003 26.2657 20.8033 26.0873 21.2494 26.0873C21.6944 26.0873 22.0975 26.2657 22.3892 26.555C22.6819 26.8433 22.8623 27.2426 22.8623 27.6816C22.8623 28.1225 22.6819 28.5208 22.3892 28.8101C22.0975 29.0975 21.6944 29.2759 21.2494 29.2759ZM24.5221 29.2759C24.0761 29.2759 23.673 29.0975 23.3813 28.8101C23.0896 28.5208 22.9091 28.1225 22.9091 27.6816C22.9091 27.2426 23.0896 26.8433 23.3813 26.555C23.673 26.2657 24.0761 26.0873 24.5221 26.0873C24.9672 26.0873 25.3702 26.2657 25.6619 26.555C25.9546 26.8433 26.1351 27.2426 26.1351 27.6816C26.1351 28.1225 25.9546 28.5208 25.6619 28.8101C25.3702 29.0975 24.9672 29.2759 24.5221 29.2759ZM27.7948 29.2759C27.3488 29.2759 26.9458 29.0975 26.654 28.8101C26.3623 28.5208 26.1818 28.1225 26.1818 27.6816C26.1818 27.2426 26.3623 26.8433 26.654 26.555C26.9458 26.2657 27.3488 26.0873 27.7948 26.0873C28.2399 26.0873 28.6429 26.2657 28.9347 26.555C29.2273 26.8433 29.4078 27.2426 29.4078 27.6816C29.4078 28.1225 29.2273 28.5208 28.9347 28.8101C28.6429 29.0975 28.2399 29.2759 27.7948 29.2759ZM29.4078 24.4468C29.4078 24.8877 29.2273 25.286 28.9347 25.5753C28.6429 25.8627 28.2399 26.0411 27.7948 26.0411C27.3488 26.0411 26.9458 25.8627 26.654 25.5753C26.3623 25.286 26.1818 24.8877 26.1818 24.4468C26.1818 24.0078 26.3623 23.6086 26.654 23.3202C26.9458 23.0309 27.3488 22.8525 27.7948 22.8525C28.2399 22.8525 28.6429 23.0309 28.9347 23.3202C29.2273 23.6086 29.4078 24.0078 29.4078 24.4468ZM29.4078 11.5077C29.4078 11.9486 29.2273 12.3469 28.9347 12.6362C28.6429 12.9236 28.2399 13.102 27.7948 13.102C27.3488 13.102 26.9458 12.9236 26.654 12.6362C26.3623 12.3469 26.1818 11.9486 26.1818 11.5077C26.1818 11.0687 26.3623 10.6694 26.654 10.3811C26.9458 10.0918 27.3488 9.91341 27.7948 9.91341C28.2399 9.91341 28.6429 10.0918 28.9347 10.3811C29.2273 10.6694 29.4078 11.0687 29.4078 11.5077ZM29.4078 8.27292C29.4078 8.71377 29.2273 9.11211 28.9347 9.40139C28.6429 9.68882 28.2399 9.8672 27.7948 9.8672C27.3488 9.8672 26.9458 9.68882 26.654 9.40139C26.3623 9.11211 26.1818 8.71377 26.1818 8.27292C26.1818 7.83391 26.3623 7.43465 26.654 7.14629C26.9458 6.85701 27.3488 6.67863 27.7948 6.67863C28.2399 6.67863 28.6429 6.85701 28.9347 7.14629C29.2273 7.43465 29.4078 7.83391 29.4078 8.27292ZM24.5221 6.67863C24.9672 6.67863 25.3702 6.85701 25.6619 7.14629C25.9546 7.43465 26.1351 7.83391 26.1351 8.27292C26.1351 8.71377 25.9546 9.11211 25.6619 9.40139C25.3702 9.68882 24.9672 9.8672 24.5221 9.8672C24.0761 9.8672 23.673 9.68882 23.3813 9.40139C23.0896 9.11211 22.9091 8.71377 22.9091 8.27292C22.9091 7.83391 23.0896 7.43465 23.3813 7.14629C23.673 6.85701 24.0761 6.67863 24.5221 6.67863ZM21.2494 6.67863C21.6944 6.67863 22.0975 6.85701 22.3892 7.14629C22.6819 7.43465 22.8623 7.83391 22.8623 8.27292C22.8623 8.71377 22.6819 9.11211 22.3892 9.40139C22.0975 9.68882 21.6944 9.8672 21.2494 9.8672C20.8033 9.8672 20.4003 9.68882 20.1086 9.40139C19.8168 9.11211 19.6364 8.71377 19.6364 8.27292C19.6364 7.83391 19.8168 7.43465 20.1086 7.14629C20.4003 6.85701 20.8033 6.67863 21.2494 6.67863ZM17.9766 6.67863C18.4217 6.67863 18.8247 6.85701 19.1165 7.14629C19.4091 7.43465 19.5896 7.83391 19.5896 8.27292C19.5896 8.71377 19.4091 9.11211 19.1165 9.40139C18.8247 9.68882 18.4217 9.8672 17.9766 9.8672C17.5306 9.8672 17.1276 9.68882 16.8358 9.40139C16.5441 9.11211 16.3636 8.71377 16.3636 8.27292C16.3636 7.83391 16.5441 7.43465 16.8358 7.14629C17.1276 6.85701 17.5306 6.67863 17.9766 6.67863ZM14.7039 6.67863C15.149 6.67863 15.552 6.85701 15.8437 7.14629C16.1364 7.43465 16.3169 7.83391 16.3169 8.27292C16.3169 8.71377 16.1364 9.11211 15.8437 9.40139C15.552 9.68882 15.149 9.8672 14.7039 9.8672C14.2579 9.8672 13.8549 9.68882 13.5631 9.40139C13.2714 9.11211 13.0909 8.71377 13.0909 8.27292C13.0909 7.83391 13.2714 7.43465 13.5631 7.14629C13.8549 6.85701 14.2579 6.67863 14.7039 6.67863ZM11.4312 6.67863C11.8763 6.67863 12.2793 6.85701 12.571 7.14629C12.8637 7.43465 13.0442 7.83391 13.0442 8.27292C13.0442 8.71377 12.8637 9.11211 12.571 9.40139C12.2793 9.68882 11.8763 9.8672 11.4312 9.8672C10.9851 9.8672 10.5821 9.68882 10.2904 9.40139C9.99865 9.11211 9.81818 8.71377 9.81818 8.27292C9.81818 7.83391 9.99865 7.43465 10.2904 7.14629C10.5821 6.85701 10.9851 6.67863 11.4312 6.67863ZM9.81818 11.5077C9.81818 11.0687 9.99865 10.6694 10.2904 10.3811C10.5821 10.0918 10.9851 9.91341 11.4312 9.91341C11.8763 9.91341 12.2793 10.0918 12.571 10.3811C12.8637 10.6694 13.0442 11.0687 13.0442 11.5077C13.0442 11.9486 12.8637 12.3469 12.571 12.6362C12.2793 12.9236 11.8763 13.102 11.4312 13.102C10.9851 13.102 10.5821 12.9236 10.2904 12.6362C9.99865 12.3469 9.81818 11.9486 9.81818 11.5077ZM9.81818 21.212C9.81818 20.773 9.99865 20.3738 10.2904 20.0854C10.5821 19.7961 10.9851 19.6178 11.4312 19.6178C11.8763 19.6178 12.2793 19.7961 12.571 20.0854C12.8637 20.3738 13.0442 20.773 13.0442 21.212C13.0442 21.6529 12.8637 22.0512 12.571 22.3405C12.2793 22.628 11.8763 22.8063 11.4312 22.8063C10.9851 22.8063 10.5821 22.628 10.2904 22.3405C9.99865 22.0512 9.81818 21.6529 9.81818 21.212ZM9.81818 24.4468C9.81818 24.0078 9.99865 23.6086 10.2904 23.3202C10.5821 23.0309 10.9851 22.8525 11.4312 22.8525C11.8763 22.8525 12.2793 23.0309 12.571 23.3202C12.8637 23.6086 13.0442 24.0078 13.0442 24.4468C13.0442 24.8877 12.8637 25.286 12.571 25.5753C12.2793 25.8627 11.8763 26.0411 11.4312 26.0411C10.9851 26.0411 10.5821 25.8627 10.2904 25.5753C9.99865 25.286 9.81818 24.8877 9.81818 24.4468ZM14.7039 26.0411C14.2579 26.0411 13.8549 25.8627 13.5631 25.5753C13.2714 25.286 13.0909 24.8877 13.0909 24.4468C13.0909 24.0078 13.2714 23.6086 13.5631 23.3202C13.8549 23.0309 14.2579 22.8525 14.7039 22.8525C15.149 22.8525 15.552 23.0309 15.8437 23.3202C16.1364 23.6086 16.3169 24.0078 16.3169 24.4468C16.3169 24.8877 16.1364 25.286 15.8437 25.5753C15.552 25.8627 15.149 26.0411 14.7039 26.0411ZM17.9766 26.0411C17.5306 26.0411 17.1276 25.8627 16.8358 25.5753C16.5441 25.286 16.3636 24.8877 16.3636 24.4468C16.3636 24.0078 16.5441 23.6086 16.8358 23.3202C17.1276 23.0309 17.5306 22.8525 17.9766 22.8525C18.4217 22.8525 18.8247 23.0309 19.1165 23.3202C19.4091 23.6086 19.5896 24.0078 19.5896 24.4468C19.5896 24.8877 19.4091 25.286 19.1165 25.5753C18.8247 25.8627 18.4217 26.0411 17.9766 26.0411ZM21.2494 26.0411C20.8033 26.0411 20.4003 25.8627 20.1086 25.5753C19.8168 25.286 19.6364 24.8877 19.6364 24.4468C19.6364 24.0078 19.8168 23.6086 20.1086 23.3202C20.4003 23.0309 20.8033 22.8525 21.2494 22.8525C21.6944 22.8525 22.0975 23.0309 22.3892 23.3202C22.6819 23.6086 22.8623 24.0078 22.8623 24.4468C22.8623 24.8877 22.6819 25.286 22.3892 25.5753C22.0975 25.8627 21.6944 26.0411 21.2494 26.0411ZM24.5221 26.0411C24.0761 26.0411 23.673 25.8627 23.3813 25.5753C23.0896 25.286 22.9091 24.8877 22.9091 24.4468C22.9091 24.0078 23.0896 23.6086 23.3813 23.3202C23.673 23.0309 24.0761 22.8525 24.5221 22.8525C24.9672 22.8525 25.3702 23.0309 25.6619 23.3202C25.9546 23.6086 26.1351 24.0078 26.1351 24.4468C26.1351 24.8877 25.9546 25.286 25.6619 25.5753C25.3702 25.8627 24.9672 26.0411 24.5221 26.0411ZM26.1351 14.7425C26.1351 15.1833 25.9546 15.5817 25.6619 15.871C25.3702 16.1584 24.9672 16.3368 24.5221 16.3368C24.0761 16.3368 23.673 16.1584 23.3813 15.871C23.0896 15.5817 22.9091 15.1833 22.9091 14.7425C22.9091 14.3035 23.0896 13.9042 23.3813 13.6159C23.673 13.3266 24.0761 13.1482 24.5221 13.1482C24.9672 13.1482 25.3702 13.3266 25.6619 13.6159C25.9546 13.9042 26.1351 14.3035 26.1351 14.7425ZM26.1351 11.5077C26.1351 11.9486 25.9546 12.3469 25.6619 12.6362C25.3702 12.9236 24.9672 13.102 24.5221 13.102C24.0761 13.102 23.673 12.9236 23.3813 12.6362C23.0896 12.3469 22.9091 11.9486 22.9091 11.5077C22.9091 11.0687 23.0896 10.6694 23.3813 10.3811C23.673 10.0918 24.0761 9.91341 24.5221 9.91341C24.9672 9.91341 25.3702 10.0918 25.6619 10.3811C25.9546 10.6694 26.1351 11.0687 26.1351 11.5077ZM21.2494 9.91341C21.6944 9.91341 22.0975 10.0918 22.3892 10.3811C22.6819 10.6694 22.8623 11.0687 22.8623 11.5077C22.8623 11.9486 22.6819 12.3469 22.3892 12.6362C22.0975 12.9236 21.6944 13.102 21.2494 13.102C20.8033 13.102 20.4003 12.9236 20.1086 12.6362C19.8168 12.3469 19.6364 11.9486 19.6364 11.5077C19.6364 11.0687 19.8168 10.6694 20.1086 10.3811C20.4003 10.0918 20.8033 9.91341 21.2494 9.91341ZM17.9766 9.91341C18.4217 9.91341 18.8247 10.0918 19.1165 10.3811C19.4091 10.6694 19.5896 11.0687 19.5896 11.5077C19.5896 11.9486 19.4091 12.3469 19.1165 12.6362C18.8247 12.9236 18.4217 13.102 17.9766 13.102C17.5306 13.102 17.1276 12.9236 16.8358 12.6362C16.5441 12.3469 16.3636 11.9486 16.3636 11.5077C16.3636 11.0687 16.5441 10.6694 16.8358 10.3811C17.1276 10.0918 17.5306 9.91341 17.9766 9.91341ZM14.7039 9.91341C15.149 9.91341 15.552 10.0918 15.8437 10.3811C16.1364 10.6694 16.3169 11.0687 16.3169 11.5077C16.3169 11.9486 16.1364 12.3469 15.8437 12.6362C15.552 12.9236 15.149 13.102 14.7039 13.102C14.2579 13.102 13.8549 12.9236 13.5631 12.6362C13.2714 12.3469 13.0909 11.9486 13.0909 11.5077C13.0909 11.0687 13.2714 10.6694 13.5631 10.3811C13.8549 10.0918 14.2579 9.91341 14.7039 9.91341ZM13.0909 14.7425C13.0909 14.3035 13.2714 13.9042 13.5631 13.6159C13.8549 13.3266 14.2579 13.1482 14.7039 13.1482C15.149 13.1482 15.552 13.3266 15.8437 13.6159C16.1364 13.9042 16.3169 14.3035 16.3169 14.7425C16.3169 15.1833 16.1364 15.5817 15.8437 15.871C15.552 16.1584 15.149 16.3368 14.7039 16.3368C14.2579 16.3368 13.8549 16.1584 13.5631 15.871C13.2714 15.5817 13.0909 15.1833 13.0909 14.7425ZM13.0909 17.9773C13.0909 17.5383 13.2714 17.139 13.5631 16.8506C13.8549 16.5614 14.2579 16.383 14.7039 16.383C15.149 16.383 15.552 16.5614 15.8437 16.8506C16.1364 17.139 16.3169 17.5383 16.3169 17.9773C16.3169 18.4181 16.1364 18.8165 15.8437 19.1057C15.552 19.3932 15.149 19.5715 14.7039 19.5715C14.2579 19.5715 13.8549 19.3932 13.5631 19.1057C13.2714 18.8165 13.0909 18.4181 13.0909 17.9773ZM13.0909 21.212C13.0909 20.773 13.2714 20.3738 13.5631 20.0854C13.8549 19.7961 14.2579 19.6178 14.7039 19.6178C15.149 19.6178 15.552 19.7961 15.8437 20.0854C16.1364 20.3738 16.3169 20.773 16.3169 21.212C16.3169 21.6529 16.1364 22.0512 15.8437 22.3405C15.552 22.628 15.149 22.8063 14.7039 22.8063C14.2579 22.8063 13.8549 22.628 13.5631 22.3405C13.2714 22.0512 13.0909 21.6529 13.0909 21.212ZM17.9766 22.8063C17.5306 22.8063 17.1276 22.628 16.8358 22.3405C16.5441 22.0512 16.3636 21.6529 16.3636 21.212C16.3636 20.773 16.5441 20.3738 16.8358 20.0854C17.1276 19.7961 17.5306 19.6178 17.9766 19.6178C18.4217 19.6178 18.8247 19.7961 19.1165 20.0854C19.4091 20.3738 19.5896 20.773 19.5896 21.212C19.5896 21.6529 19.4091 22.0512 19.1165 22.3405C18.8247 22.628 18.4217 22.8063 17.9766 22.8063ZM21.2494 22.8063C20.8033 22.8063 20.4003 22.628 20.1086 22.3405C19.8168 22.0512 19.6364 21.6529 19.6364 21.212C19.6364 20.773 19.8168 20.3738 20.1086 20.0854C20.4003 19.7961 20.8033 19.6178 21.2494 19.6178C21.6944 19.6178 22.0975 19.7961 22.3892 20.0854C22.6819 20.3738 22.8623 20.773 22.8623 21.212C22.8623 21.6529 22.6819 22.0512 22.3892 22.3405C22.0975 22.628 21.6944 22.8063 21.2494 22.8063ZM22.8623 17.9773C22.8623 18.4181 22.6819 18.8165 22.3892 19.1057C22.0975 19.3932 21.6944 19.5715 21.2494 19.5715C20.8033 19.5715 20.4003 19.3932 20.1086 19.1057C19.8168 18.8165 19.6364 18.4181 19.6364 17.9773C19.6364 17.5383 19.8168 17.139 20.1086 16.8506C20.4003 16.5614 20.8033 16.383 21.2494 16.383C21.6944 16.383 22.0975 16.5614 22.3892 16.8506C22.6819 17.139 22.8623 17.5383 22.8623 17.9773ZM22.8623 14.7425C22.8623 15.1833 22.6819 15.5817 22.3892 15.871C22.0975 16.1584 21.6944 16.3368 21.2494 16.3368C20.8033 16.3368 20.4003 16.1584 20.1086 15.871C19.8168 15.5817 19.6364 15.1833 19.6364 14.7425C19.6364 14.3035 19.8168 13.9042 20.1086 13.6159C20.4003 13.3266 20.8033 13.1482 21.2494 13.1482C21.6944 13.1482 22.0975 13.3266 22.3892 13.6159C22.6819 13.9042 22.8623 14.3035 22.8623 14.7425ZM17.9766 13.1482C18.4217 13.1482 18.8247 13.3266 19.1165 13.6159C19.4091 13.9042 19.5896 14.3035 19.5896 14.7425C19.5896 15.1833 19.4091 15.5817 19.1165 15.871C18.8247 16.1584 18.4217 16.3368 17.9766 16.3368C17.5306 16.3368 17.1276 16.1584 16.8358 15.871C16.5441 15.5817 16.3636 15.1833 16.3636 14.7425C16.3636 14.3035 16.5441 13.9042 16.8358 13.6159C17.1276 13.3266 17.5306 13.1482 17.9766 13.1482ZM16.3636 17.9773C16.3636 17.5383 16.5441 17.139 16.8358 16.8506C17.1276 16.5614 17.5306 16.383 17.9766 16.383C18.4217 16.383 18.8247 16.5614 19.1165 16.8506C19.4091 17.139 19.5896 17.5383 19.5896 17.9773C19.5896 18.4181 19.4091 18.8165 19.1165 19.1057C18.8247 19.3932 18.4217 19.5715 17.9766 19.5715C17.5306 19.5715 17.1276 19.3932 16.8358 19.1057C16.5441 18.8165 16.3636 18.4181 16.3636 17.9773Z" fill="url(#paint0_linear_26_4268)"/>
</g>
<path d="M43.6935 8.11374H46.3381C46.3581 8.11374 46.3681 8.11374 46.3681 8.11374C46.3681 8.11374 46.3681 8.12376 46.3681 8.14379V10.7884C46.3681 10.8084 46.3681 10.8184 46.3681 10.8184C46.3681 10.8184 46.3581 10.8184 46.3381 10.8184H43.6935C43.6735 10.8184 43.6634 10.8184 43.6634 10.8184C43.6634 10.8184 43.6634 10.8084 43.6634 10.7884V8.14379C43.6634 8.12376 43.6634 8.11374 43.6634 8.11374C43.6634 8.11374 43.6735 8.11374 43.6935 8.11374ZM46.6987 8.11374H49.3433C49.3633 8.11374 49.3734 8.11374 49.3734 8.11374C49.3734 8.11374 49.3734 8.12376 49.3734 8.14379V10.7884C49.3734 10.8084 49.3734 10.8184 49.3734 10.8184C49.3734 10.8184 49.3633 10.8184 49.3433 10.8184H46.6987C46.6787 10.8184 46.6687 10.8184 46.6687 10.8184C46.6687 10.8184 46.6687 10.8084 46.6687 10.7884V8.14379C46.6687 8.12376 46.6687 8.11374 46.6687 8.11374C46.6687 8.11374 46.6787 8.11374 46.6987 8.11374ZM49.7039 8.11374H52.3485C52.3686 8.11374 52.3786 8.11374 52.3786 8.11374C52.3786 8.11374 52.3786 8.12376 52.3786 8.14379V10.7884C52.3786 10.8084 52.3786 10.8184 52.3786 10.8184C52.3786 10.8184 52.3686 10.8184 52.3485 10.8184H49.7039C49.6839 10.8184 49.6739 10.8184 49.6739 10.8184C49.6739 10.8184 49.6739 10.8084 49.6739 10.7884V8.14379C49.6739 8.12376 49.6739 8.11374 49.6739 8.11374C49.6739 8.11374 49.6839 8.11374 49.7039 8.11374ZM52.7091 8.11374H55.3537C55.3738 8.11374 55.3838 8.11374 55.3838 8.11374C55.3838 8.11374 55.3838 8.12376 55.3838 8.14379V10.7884C55.3838 10.8084 55.3838 10.8184 55.3838 10.8184C55.3838 10.8184 55.3738 10.8184 55.3537 10.8184H52.7091C52.6891 10.8184 52.6791 10.8184 52.6791 10.8184C52.6791 10.8184 52.6791 10.8084 52.6791 10.7884V8.14379C52.6791 8.12376 52.6791 8.11374 52.6791 8.11374C52.6791 8.11374 52.6891 8.11374 52.7091 8.11374ZM55.7144 8.11374H58.359C58.379 8.11374 58.389 8.11374 58.389 8.11374C58.389 8.11374 58.389 8.12376 58.389 8.14379V10.7884C58.389 10.8084 58.389 10.8184 58.389 10.8184C58.389 10.8184 58.379 10.8184 58.359 10.8184H55.7144C55.6943 10.8184 55.6843 10.8184 55.6843 10.8184C55.6843 10.8184 55.6843 10.8084 55.6843 10.7884V8.14379C55.6843 8.12376 55.6843 8.11374 55.6843 8.11374C55.6843 8.11374 55.6943 8.11374 55.7144 8.11374ZM55.7144 11.119H58.359C58.379 11.119 58.389 11.119 58.389 11.119C58.389 11.119 58.389 11.129 58.389 11.149V13.7936C58.389 13.8136 58.389 13.8237 58.389 13.8237C58.389 13.8237 58.379 13.8237 58.359 13.8237H55.7144C55.6943 13.8237 55.6843 13.8237 55.6843 13.8237C55.6843 13.8237 55.6843 13.8136 55.6843 13.7936V11.149C55.6843 11.129 55.6843 11.119 55.6843 11.119C55.6843 11.119 55.6943 11.119 55.7144 11.119ZM52.7091 14.1242H55.3537C55.3738 14.1242 55.3838 14.1242 55.3838 14.1242C55.3838 14.1242 55.3838 14.1342 55.3838 14.1542V16.7988C55.3838 16.8189 55.3838 16.8289 55.3838 16.8289C55.3838 16.8289 55.3738 16.8289 55.3537 16.8289H52.7091C52.6891 16.8289 52.6791 16.8289 52.6791 16.8289C52.6791 16.8289 52.6791 16.8189 52.6791 16.7988V14.1542C52.6791 14.1342 52.6791 14.1242 52.6791 14.1242C52.6791 14.1242 52.6891 14.1242 52.7091 14.1242ZM49.7039 17.1294H52.3485C52.3686 17.1294 52.3786 17.1294 52.3786 17.1294C52.3786 17.1294 52.3786 17.1394 52.3786 17.1594V19.804C52.3786 19.8241 52.3786 19.8341 52.3786 19.8341C52.3786 19.8341 52.3686 19.8341 52.3485 19.8341H49.7039C49.6839 19.8341 49.6739 19.8341 49.6739 19.8341C49.6739 19.8341 49.6739 19.8241 49.6739 19.804V17.1594C49.6739 17.1394 49.6739 17.1294 49.6739 17.1294C49.6739 17.1294 49.6839 17.1294 49.7039 17.1294ZM46.6987 20.1346H49.3433C49.3633 20.1346 49.3734 20.1346 49.3734 20.1346C49.3734 20.1346 49.3734 20.1446 49.3734 20.1647V22.8093C49.3734 22.8293 49.3734 22.8393 49.3734 22.8393C49.3734 22.8393 49.3633 22.8393 49.3433 22.8393H46.6987C46.6787 22.8393 46.6687 22.8393 46.6687 22.8393C46.6687 22.8393 46.6687 22.8293 46.6687 22.8093V20.1647C46.6687 20.1446 46.6687 20.1346 46.6687 20.1346C46.6687 20.1346 46.6787 20.1346 46.6987 20.1346ZM43.6935 23.1398H46.3381C46.3581 23.1398 46.3681 23.1398 46.3681 23.1398C46.3681 23.1398 46.3681 23.1498 46.3681 23.1699V25.8145C46.3681 25.8345 46.3681 25.8445 46.3681 25.8445C46.3681 25.8445 46.3581 25.8445 46.3381 25.8445H43.6935C43.6735 25.8445 43.6634 25.8445 43.6634 25.8445C43.6634 25.8445 43.6634 25.8345 43.6634 25.8145V23.1699C43.6634 23.1498 43.6634 23.1398 43.6634 23.1398C43.6634 23.1398 43.6735 23.1398 43.6935 23.1398ZM43.6935 26.145H46.3381C46.3581 26.145 46.3681 26.145 46.3681 26.145C46.3681 26.145 46.3681 26.1551 46.3681 26.1751V28.8197C46.3681 28.8397 46.3681 28.8497 46.3681 28.8497C46.3681 28.8497 46.3581 28.8497 46.3381 28.8497H43.6935C43.6735 28.8497 43.6634 28.8497 43.6634 28.8497C43.6634 28.8497 43.6634 28.8397 43.6634 28.8197V26.1751C43.6634 26.1551 43.6634 26.145 43.6634 26.145C43.6634 26.145 43.6735 26.145 43.6935 26.145ZM46.6987 26.145H49.3433C49.3633 26.145 49.3734 26.145 49.3734 26.145C49.3734 26.145 49.3734 26.1551 49.3734 26.1751V28.8197C49.3734 28.8397 49.3734 28.8497 49.3734 28.8497C49.3734 28.8497 49.3633 28.8497 49.3433 28.8497H46.6987C46.6787 28.8497 46.6687 28.8497 46.6687 28.8497C46.6687 28.8497 46.6687 28.8397 46.6687 28.8197V26.1751C46.6687 26.1551 46.6687 26.145 46.6687 26.145C46.6687 26.145 46.6787 26.145 46.6987 26.145ZM49.7039 26.145H52.3485C52.3686 26.145 52.3786 26.145 52.3786 26.145C52.3786 26.145 52.3786 26.1551 52.3786 26.1751V28.8197C52.3786 28.8397 52.3786 28.8497 52.3786 28.8497C52.3786 28.8497 52.3686 28.8497 52.3485 28.8497H49.7039C49.6839 28.8497 49.6739 28.8497 49.6739 28.8497C49.6739 28.8497 49.6739 28.8397 49.6739 28.8197V26.1751C49.6739 26.1551 49.6739 26.145 49.6739 26.145C49.6739 26.145 49.6839 26.145 49.7039 26.145ZM52.7091 26.145H55.3537C55.3738 26.145 55.3838 26.145 55.3838 26.145C55.3838 26.145 55.3838 26.1551 55.3838 26.1751V28.8197C55.3838 28.8397 55.3838 28.8497 55.3838 28.8497C55.3838 28.8497 55.3738 28.8497 55.3537 28.8497H52.7091C52.6891 28.8497 52.6791 28.8497 52.6791 28.8497C52.6791 28.8497 52.6791 28.8397 52.6791 28.8197V26.1751C52.6791 26.1551 52.6791 26.145 52.6791 26.145C52.6791 26.145 52.6891 26.145 52.7091 26.145ZM55.7144 26.145H58.359C58.379 26.145 58.389 26.145 58.389 26.145C58.389 26.145 58.389 26.1551 58.389 26.1751V28.8197C58.389 28.8397 58.389 28.8497 58.389 28.8497C58.389 28.8497 58.379 28.8497 58.359 28.8497H55.7144C55.6943 28.8497 55.6843 28.8497 55.6843 28.8497C55.6843 28.8497 55.6843 28.8397 55.6843 28.8197V26.1751C55.6843 26.1551 55.6843 26.145 55.6843 26.145C55.6843 26.145 55.6943 26.145 55.7144 26.145ZM64.7183 14.1242H67.3629C67.3829 14.1242 67.3929 14.1242 67.3929 14.1242C67.3929 14.1242 67.3929 14.1342 67.3929 14.1542V16.7988C67.3929 16.8189 67.3929 16.8289 67.3929 16.8289C67.3929 16.8289 67.3829 16.8289 67.3629 16.8289H64.7183C64.6982 16.8289 64.6882 16.8289 64.6882 16.8289C64.6882 16.8289 64.6882 16.8189 64.6882 16.7988V14.1542C64.6882 14.1342 64.6882 14.1242 64.6882 14.1242C64.6882 14.1242 64.6982 14.1242 64.7183 14.1242ZM67.7235 14.1242H70.3681C70.3881 14.1242 70.3981 14.1242 70.3981 14.1242C70.3981 14.1242 70.3981 14.1342 70.3981 14.1542V16.7988C70.3981 16.8189 70.3981 16.8289 70.3981 16.8289C70.3981 16.8289 70.3881 16.8289 70.3681 16.8289H67.7235C67.7035 16.8289 67.6934 16.8289 67.6934 16.8289C67.6934 16.8289 67.6934 16.8189 67.6934 16.7988V14.1542C67.6934 14.1342 67.6934 14.1242 67.6934 14.1242C67.6934 14.1242 67.7035 14.1242 67.7235 14.1242ZM70.7287 14.1242H73.3733C73.3933 14.1242 73.4034 14.1242 73.4034 14.1242C73.4034 14.1242 73.4034 14.1342 73.4034 14.1542V16.7988C73.4034 16.8189 73.4034 16.8289 73.4034 16.8289C73.4034 16.8289 73.3933 16.8289 73.3733 16.8289H70.7287C70.7087 16.8289 70.6987 16.8289 70.6987 16.8289C70.6987 16.8289 70.6987 16.8189 70.6987 16.7988V14.1542C70.6987 14.1342 70.6987 14.1242 70.6987 14.1242C70.6987 14.1242 70.7087 14.1242 70.7287 14.1242ZM61.7131 17.1294H64.3577C64.3777 17.1294 64.3877 17.1294 64.3877 17.1294C64.3877 17.1294 64.3877 17.1394 64.3877 17.1594V19.804C64.3877 19.8241 64.3877 19.8341 64.3877 19.8341C64.3877 19.8341 64.3777 19.8341 64.3577 19.8341H61.7131C61.693 19.8341 61.683 19.8341 61.683 19.8341C61.683 19.8341 61.683 19.8241 61.683 19.804V17.1594C61.683 17.1394 61.683 17.1294 61.683 17.1294C61.683 17.1294 61.693 17.1294 61.7131 17.1294ZM73.7339 17.1294H76.3785C76.3986 17.1294 76.4086 17.1294 76.4086 17.1294C76.4086 17.1294 76.4086 17.1394 76.4086 17.1594V19.804C76.4086 19.8241 76.4086 19.8341 76.4086 19.8341C76.4086 19.8341 76.3986 19.8341 76.3785 19.8341H73.7339C73.7139 19.8341 73.7039 19.8341 73.7039 19.8341C73.7039 19.8341 73.7039 19.8241 73.7039 19.804V17.1594C73.7039 17.1394 73.7039 17.1294 73.7039 17.1294C73.7039 17.1294 73.7139 17.1294 73.7339 17.1294ZM61.7131 20.1346H64.3577C64.3777 20.1346 64.3877 20.1346 64.3877 20.1346C64.3877 20.1346 64.3877 20.1446 64.3877 20.1647V22.8093C64.3877 22.8293 64.3877 22.8393 64.3877 22.8393C64.3877 22.8393 64.3777 22.8393 64.3577 22.8393H61.7131C61.693 22.8393 61.683 22.8393 61.683 22.8393C61.683 22.8393 61.683 22.8293 61.683 22.8093V20.1647C61.683 20.1446 61.683 20.1346 61.683 20.1346C61.683 20.1346 61.693 20.1346 61.7131 20.1346ZM64.7183 20.1346H67.3629C67.3829 20.1346 67.3929 20.1346 67.3929 20.1346C67.3929 20.1346 67.3929 20.1446 67.3929 20.1647V22.8093C67.3929 22.8293 67.3929 22.8393 67.3929 22.8393C67.3929 22.8393 67.3829 22.8393 67.3629 22.8393H64.7183C64.6982 22.8393 64.6882 22.8393 64.6882 22.8393C64.6882 22.8393 64.6882 22.8293 64.6882 22.8093V20.1647C64.6882 20.1446 64.6882 20.1346 64.6882 20.1346C64.6882 20.1346 64.6982 20.1346 64.7183 20.1346ZM67.7235 20.1346H70.3681C70.3881 20.1346 70.3981 20.1346 70.3981 20.1346C70.3981 20.1346 70.3981 20.1446 70.3981 20.1647V22.8093C70.3981 22.8293 70.3981 22.8393 70.3981 22.8393C70.3981 22.8393 70.3881 22.8393 70.3681 22.8393H67.7235C67.7035 22.8393 67.6934 22.8393 67.6934 22.8393C67.6934 22.8393 67.6934 22.8293 67.6934 22.8093V20.1647C67.6934 20.1446 67.6934 20.1346 67.6934 20.1346C67.6934 20.1346 67.7035 20.1346 67.7235 20.1346ZM70.7287 20.1346H73.3733C73.3933 20.1346 73.4034 20.1346 73.4034 20.1346C73.4034 20.1346 73.4034 20.1446 73.4034 20.1647V22.8093C73.4034 22.8293 73.4034 22.8393 73.4034 22.8393C73.4034 22.8393 73.3933 22.8393 73.3733 22.8393H70.7287C70.7087 22.8393 70.6987 22.8393 70.6987 22.8393C70.6987 22.8393 70.6987 22.8293 70.6987 22.8093V20.1647C70.6987 20.1446 70.6987 20.1346 70.6987 20.1346C70.6987 20.1346 70.7087 20.1346 70.7287 20.1346ZM73.7339 20.1346H76.3785C76.3986 20.1346 76.4086 20.1346 76.4086 20.1346C76.4086 20.1346 76.4086 20.1446 76.4086 20.1647V22.8093C76.4086 22.8293 76.4086 22.8393 76.4086 22.8393C76.4086 22.8393 76.3986 22.8393 76.3785 22.8393H73.7339C73.7139 22.8393 73.7039 22.8393 73.7039 22.8393C73.7039 22.8393 73.7039 22.8293 73.7039 22.8093V20.1647C73.7039 20.1446 73.7039 20.1346 73.7039 20.1346C73.7039 20.1346 73.7139 20.1346 73.7339 20.1346ZM61.7131 23.1398H64.3577C64.3777 23.1398 64.3877 23.1398 64.3877 23.1398C64.3877 23.1398 64.3877 23.1498 64.3877 23.1699V25.8145C64.3877 25.8345 64.3877 25.8445 64.3877 25.8445C64.3877 25.8445 64.3777 25.8445 64.3577 25.8445H61.7131C61.693 25.8445 61.683 25.8445 61.683 25.8445C61.683 25.8445 61.683 25.8345 61.683 25.8145V23.1699C61.683 23.1498 61.683 23.1398 61.683 23.1398C61.683 23.1398 61.693 23.1398 61.7131 23.1398ZM64.7183 26.145H67.3629C67.3829 26.145 67.3929 26.145 67.3929 26.145C67.3929 26.145 67.3929 26.1551 67.3929 26.1751V28.8197C67.3929 28.8397 67.3929 28.8497 67.3929 28.8497C67.3929 28.8497 67.3829 28.8497 67.3629 28.8497H64.7183C64.6982 28.8497 64.6882 28.8497 64.6882 28.8497C64.6882 28.8497 64.6882 28.8397 64.6882 28.8197V26.1751C64.6882 26.1551 64.6882 26.145 64.6882 26.145C64.6882 26.145 64.6982 26.145 64.7183 26.145ZM67.7235 26.145H70.3681C70.3881 26.145 70.3981 26.145 70.3981 26.145C70.3981 26.145 70.3981 26.1551 70.3981 26.1751V28.8197C70.3981 28.8397 70.3981 28.8497 70.3981 28.8497C70.3981 28.8497 70.3881 28.8497 70.3681 28.8497H67.7235C67.7035 28.8497 67.6934 28.8497 67.6934 28.8497C67.6934 28.8497 67.6934 28.8397 67.6934 28.8197V26.1751C67.6934 26.1551 67.6934 26.145 67.6934 26.145C67.6934 26.145 67.7035 26.145 67.7235 26.145ZM70.7287 26.145H73.3733C73.3933 26.145 73.4034 26.145 73.4034 26.145C73.4034 26.145 73.4034 26.1551 73.4034 26.1751V28.8197C73.4034 28.8397 73.4034 28.8497 73.4034 28.8497C73.4034 28.8497 73.3933 28.8497 73.3733 28.8497H70.7287C70.7087 28.8497 70.6987 28.8497 70.6987 28.8497C70.6987 28.8497 70.6987 28.8397 70.6987 28.8197V26.1751C70.6987 26.1551 70.6987 26.145 70.6987 26.145C70.6987 26.145 70.7087 26.145 70.7287 26.145ZM79.7326 14.1242H82.3772C82.3973 14.1242 82.4073 14.1242 82.4073 14.1242C82.4073 14.1242 82.4073 14.1342 82.4073 14.1542V16.7988C82.4073 16.8189 82.4073 16.8289 82.4073 16.8289C82.4073 16.8289 82.3973 16.8289 82.3772 16.8289H79.7326C79.7126 16.8289 79.7026 16.8289 79.7026 16.8289C79.7026 16.8289 79.7026 16.8189 79.7026 16.7988V14.1542C79.7026 14.1342 79.7026 14.1242 79.7026 14.1242C79.7026 14.1242 79.7126 14.1242 79.7326 14.1242ZM85.7431 14.1242H88.3877C88.4077 14.1242 88.4177 14.1242 88.4177 14.1242C88.4177 14.1242 88.4177 14.1342 88.4177 14.1542V16.7988C88.4177 16.8189 88.4177 16.8289 88.4177 16.8289C88.4177 16.8289 88.4077 16.8289 88.3877 16.8289H85.7431C85.723 16.8289 85.713 16.8289 85.713 16.8289C85.713 16.8289 85.713 16.8189 85.713 16.7988V14.1542C85.713 14.1342 85.713 14.1242 85.713 14.1242C85.713 14.1242 85.723 14.1242 85.7431 14.1242ZM88.7483 14.1242H91.3929C91.4129 14.1242 91.4229 14.1242 91.4229 14.1242C91.4229 14.1242 91.4229 14.1342 91.4229 14.1542V16.7988C91.4229 16.8189 91.4229 16.8289 91.4229 16.8289C91.4229 16.8289 91.4129 16.8289 91.3929 16.8289H88.7483C88.7282 16.8289 88.7182 16.8289 88.7182 16.8289C88.7182 16.8289 88.7182 16.8189 88.7182 16.7988V14.1542C88.7182 14.1342 88.7182 14.1242 88.7182 14.1242C88.7182 14.1242 88.7282 14.1242 88.7483 14.1242ZM79.7326 17.1294H82.3772C82.3973 17.1294 82.4073 17.1294 82.4073 17.1294C82.4073 17.1294 82.4073 17.1394 82.4073 17.1594V19.804C82.4073 19.8241 82.4073 19.8341 82.4073 19.8341C82.4073 19.8341 82.3973 19.8341 82.3772 19.8341H79.7326C79.7126 19.8341 79.7026 19.8341 79.7026 19.8341C79.7026 19.8341 79.7026 19.8241 79.7026 19.804V17.1594C79.7026 17.1394 79.7026 17.1294 79.7026 17.1294C79.7026 17.1294 79.7126 17.1294 79.7326 17.1294ZM82.7378 17.1294H85.3824C85.4025 17.1294 85.4125 17.1294 85.4125 17.1294C85.4125 17.1294 85.4125 17.1394 85.4125 17.1594V19.804C85.4125 19.8241 85.4125 19.8341 85.4125 19.8341C85.4125 19.8341 85.4025 19.8341 85.3824 19.8341H82.7378C82.7178 19.8341 82.7078 19.8341 82.7078 19.8341C82.7078 19.8341 82.7078 19.8241 82.7078 19.804V17.1594C82.7078 17.1394 82.7078 17.1294 82.7078 17.1294C82.7078 17.1294 82.7178 17.1294 82.7378 17.1294ZM91.7535 17.1294H94.3981C94.4181 17.1294 94.4281 17.1294 94.4281 17.1294C94.4281 17.1294 94.4281 17.1394 94.4281 17.1594V19.804C94.4281 19.8241 94.4281 19.8341 94.4281 19.8341C94.4281 19.8341 94.4181 19.8341 94.3981 19.8341H91.7535C91.7335 19.8341 91.7234 19.8341 91.7234 19.8341C91.7234 19.8341 91.7234 19.8241 91.7234 19.804V17.1594C91.7234 17.1394 91.7234 17.1294 91.7234 17.1294C91.7234 17.1294 91.7335 17.1294 91.7535 17.1294ZM79.7326 20.1346H82.3772C82.3973 20.1346 82.4073 20.1346 82.4073 20.1346C82.4073 20.1346 82.4073 20.1446 82.4073 20.1647V22.8093C82.4073 22.8293 82.4073 22.8393 82.4073 22.8393C82.4073 22.8393 82.3973 22.8393 82.3772 22.8393H79.7326C79.7126 22.8393 79.7026 22.8393 79.7026 22.8393C79.7026 22.8393 79.7026 22.8293 79.7026 22.8093V20.1647C79.7026 20.1446 79.7026 20.1346 79.7026 20.1346C79.7026 20.1346 79.7126 20.1346 79.7326 20.1346ZM91.7535 20.1346H94.3981C94.4181 20.1346 94.4281 20.1346 94.4281 20.1346C94.4281 20.1346 94.4281 20.1446 94.4281 20.1647V22.8093C94.4281 22.8293 94.4281 22.8393 94.4281 22.8393C94.4281 22.8393 94.4181 22.8393 94.3981 22.8393H91.7535C91.7335 22.8393 91.7234 22.8393 91.7234 22.8393C91.7234 22.8393 91.7234 22.8293 91.7234 22.8093V20.1647C91.7234 20.1446 91.7234 20.1346 91.7234 20.1346C91.7234 20.1346 91.7335 20.1346 91.7535 20.1346ZM79.7326 23.1398H82.3772C82.3973 23.1398 82.4073 23.1398 82.4073 23.1398C82.4073 23.1398 82.4073 23.1498 82.4073 23.1699V25.8145C82.4073 25.8345 82.4073 25.8445 82.4073 25.8445C82.4073 25.8445 82.3973 25.8445 82.3772 25.8445H79.7326C79.7126 25.8445 79.7026 25.8445 79.7026 25.8445C79.7026 25.8445 79.7026 25.8345 79.7026 25.8145V23.1699C79.7026 23.1498 79.7026 23.1398 79.7026 23.1398C79.7026 23.1398 79.7126 23.1398 79.7326 23.1398ZM91.7535 23.1398H94.3981C94.4181 23.1398 94.4281 23.1398 94.4281 23.1398C94.4281 23.1398 94.4281 23.1498 94.4281 23.1699V25.8145C94.4281 25.8345 94.4281 25.8445 94.4281 25.8445C94.4281 25.8445 94.4181 25.8445 94.3981 25.8445H91.7535C91.7335 25.8445 91.7234 25.8445 91.7234 25.8445C91.7234 25.8445 91.7234 25.8345 91.7234 25.8145V23.1699C91.7234 23.1498 91.7234 23.1398 91.7234 23.1398C91.7234 23.1398 91.7335 23.1398 91.7535 23.1398ZM79.7326 26.145H82.3772C82.3973 26.145 82.4073 26.145 82.4073 26.145C82.4073 26.145 82.4073 26.1551 82.4073 26.1751V28.8197C82.4073 28.8397 82.4073 28.8497 82.4073 28.8497C82.4073 28.8497 82.3973 28.8497 82.3772 28.8497H79.7326C79.7126 28.8497 79.7026 28.8497 79.7026 28.8497C79.7026 28.8497 79.7026 28.8397 79.7026 28.8197V26.1751C79.7026 26.1551 79.7026 26.145 79.7026 26.145C79.7026 26.145 79.7126 26.145 79.7326 26.145ZM91.7535 26.145H94.3981C94.4181 26.145 94.4281 26.145 94.4281 26.145C94.4281 26.145 94.4281 26.1551 94.4281 26.1751V28.8197C94.4281 28.8397 94.4281 28.8497 94.4281 28.8497C94.4281 28.8497 94.4181 28.8497 94.3981 28.8497H91.7535C91.7335 28.8497 91.7234 28.8497 91.7234 28.8497C91.7234 28.8497 91.7234 28.8397 91.7234 28.8197V26.1751C91.7234 26.1551 91.7234 26.145 91.7234 26.145C91.7234 26.145 91.7335 26.145 91.7535 26.145ZM100.757 14.1242H103.402C103.422 14.1242 103.432 14.1242 103.432 14.1242C103.432 14.1242 103.432 14.1342 103.432 14.1542V16.7988C103.432 16.8189 103.432 16.8289 103.432 16.8289C103.432 16.8289 103.422 16.8289 103.402 16.8289H100.757C100.737 16.8289 100.727 16.8289 100.727 16.8289C100.727 16.8289 100.727 16.8189 100.727 16.7988V14.1542C100.727 14.1342 100.727 14.1242 100.727 14.1242C100.727 14.1242 100.737 14.1242 100.757 14.1242ZM103.763 14.1242H106.407C106.427 14.1242 106.437 14.1242 106.437 14.1242C106.437 14.1242 106.437 14.1342 106.437 14.1542V16.7988C106.437 16.8189 106.437 16.8289 106.437 16.8289C106.437 16.8289 106.427 16.8289 106.407 16.8289H103.763C103.743 16.8289 103.733 16.8289 103.733 16.8289C103.733 16.8289 103.733 16.8189 103.733 16.7988V14.1542C103.733 14.1342 103.733 14.1242 103.733 14.1242C103.733 14.1242 103.743 14.1242 103.763 14.1242ZM106.768 14.1242H109.412C109.432 14.1242 109.442 14.1242 109.442 14.1242C109.442 14.1242 109.442 14.1342 109.442 14.1542V16.7988C109.442 16.8189 109.442 16.8289 109.442 16.8289C109.442 16.8289 109.432 16.8289 109.412 16.8289H106.768C106.748 16.8289 106.738 16.8289 106.738 16.8289C106.738 16.8289 106.738 16.8189 106.738 16.7988V14.1542C106.738 14.1342 106.738 14.1242 106.738 14.1242C106.738 14.1242 106.748 14.1242 106.768 14.1242ZM97.7522 17.1294H100.397C100.417 17.1294 100.427 17.1294 100.427 17.1294C100.427 17.1294 100.427 17.1394 100.427 17.1594V19.804C100.427 19.8241 100.427 19.8341 100.427 19.8341C100.427 19.8341 100.417 19.8341 100.397 19.8341H97.7522C97.7322 19.8341 97.7221 19.8341 97.7221 19.8341C97.7221 19.8341 97.7221 19.8241 97.7221 19.804V17.1594C97.7221 17.1394 97.7221 17.1294 97.7221 17.1294C97.7221 17.1294 97.7322 17.1294 97.7522 17.1294ZM109.773 17.1294H112.418C112.438 17.1294 112.448 17.1294 112.448 17.1294C112.448 17.1294 112.448 17.1394 112.448 17.1594V19.804C112.448 19.8241 112.448 19.8341 112.448 19.8341C112.448 19.8341 112.438 19.8341 112.418 19.8341H109.773C109.753 19.8341 109.743 19.8341 109.743 19.8341C109.743 19.8341 109.743 19.8241 109.743 19.804V17.1594C109.743 17.1394 109.743 17.1294 109.743 17.1294C109.743 17.1294 109.753 17.1294 109.773 17.1294ZM97.7522 20.1346H100.397C100.417 20.1346 100.427 20.1346 100.427 20.1346C100.427 20.1346 100.427 20.1446 100.427 20.1647V22.8093C100.427 22.8293 100.427 22.8393 100.427 22.8393C100.427 22.8393 100.417 22.8393 100.397 22.8393H97.7522C97.7322 22.8393 97.7221 22.8393 97.7221 22.8393C97.7221 22.8393 97.7221 22.8293 97.7221 22.8093V20.1647C97.7221 20.1446 97.7221 20.1346 97.7221 20.1346C97.7221 20.1346 97.7322 20.1346 97.7522 20.1346ZM109.773 20.1346H112.418C112.438 20.1346 112.448 20.1346 112.448 20.1346C112.448 20.1346 112.448 20.1446 112.448 20.1647V22.8093C112.448 22.8293 112.448 22.8393 112.448 22.8393C112.448 22.8393 112.438 22.8393 112.418 22.8393H109.773C109.753 22.8393 109.743 22.8393 109.743 22.8393C109.743 22.8393 109.743 22.8293 109.743 22.8093V20.1647C109.743 20.1446 109.743 20.1346 109.743 20.1346C109.743 20.1346 109.753 20.1346 109.773 20.1346ZM97.7522 23.1398H100.397C100.417 23.1398 100.427 23.1398 100.427 23.1398C100.427 23.1398 100.427 23.1498 100.427 23.1699V25.8145C100.427 25.8345 100.427 25.8445 100.427 25.8445C100.427 25.8445 100.417 25.8445 100.397 25.8445H97.7522C97.7322 25.8445 97.7221 25.8445 97.7221 25.8445C97.7221 25.8445 97.7221 25.8345 97.7221 25.8145V23.1699C97.7221 23.1498 97.7221 23.1398 97.7221 23.1398C97.7221 23.1398 97.7322 23.1398 97.7522 23.1398ZM109.773 23.1398H112.418C112.438 23.1398 112.448 23.1398 112.448 23.1398C112.448 23.1398 112.448 23.1498 112.448 23.1699V25.8145C112.448 25.8345 112.448 25.8445 112.448 25.8445C112.448 25.8445 112.438 25.8445 112.418 25.8445H109.773C109.753 25.8445 109.743 25.8445 109.743 25.8445C109.743 25.8445 109.743 25.8345 109.743 25.8145V23.1699C109.743 23.1498 109.743 23.1398 109.743 23.1398C109.743 23.1398 109.753 23.1398 109.773 23.1398ZM100.757 26.145H103.402C103.422 26.145 103.432 26.145 103.432 26.145C103.432 26.145 103.432 26.1551 103.432 26.1751V28.8197C103.432 28.8397 103.432 28.8497 103.432 28.8497C103.432 28.8497 103.422 28.8497 103.402 28.8497H100.757C100.737 28.8497 100.727 28.8497 100.727 28.8497C100.727 28.8497 100.727 28.8397 100.727 28.8197V26.1751C100.727 26.1551 100.727 26.145 100.727 26.145C100.727 26.145 100.737 26.145 100.757 26.145ZM103.763 26.145H106.407C106.427 26.145 106.437 26.145 106.437 26.145C106.437 26.145 106.437 26.1551 106.437 26.1751V28.8197C106.437 28.8397 106.437 28.8497 106.437 28.8497C106.437 28.8497 106.427 28.8497 106.407 28.8497H103.763C103.743 28.8497 103.733 28.8497 103.733 28.8497C103.733 28.8497 103.733 28.8397 103.733 28.8197V26.1751C103.733 26.1551 103.733 26.145 103.733 26.145C103.733 26.145 103.743 26.145 103.763 26.145ZM106.768 26.145H109.412C109.432 26.145 109.442 26.145 109.442 26.145C109.442 26.145 109.442 26.1551 109.442 26.1751V28.8197C109.442 28.8397 109.442 28.8497 109.442 28.8497C109.442 28.8497 109.432 28.8497 109.412 28.8497H106.768C106.748 28.8497 106.738 28.8497 106.738 28.8497C106.738 28.8497 106.738 28.8397 106.738 28.8197V26.1751C106.738 26.1551 106.738 26.145 106.738 26.145C106.738 26.145 106.748 26.145 106.768 26.145Z" fill="white"/>
<defs>
<linearGradient id="paint0_linear_26_4268" x1="17.9766" y1="3.44385" x2="17.9766" y2="32.5107" gradientUnits="userSpaceOnUse">
<stop stop-color="#B1FE1A"/>
<stop offset="1" stop-color="#13161B"/>
</linearGradient>
<clipPath id="clip0_26_4268">
<rect width="36" height="29.113" fill="white" transform="translate(0 3.44385)"/>
</clipPath>
</defs>
</svg>
